<?xml version="1.0" ?><svg height="19px" version="1.1" viewBox="0 0 20 19" width="20px" xmlns="http://www.w3.org/2000/svg" xmlns:xlink="http://www.w3.org/1999/xlink"><title/><g fill="none" fill-rule="evenodd" id="Icons" stroke="none" stroke-linecap="round" stroke-linejoin="round" stroke-width="1"><g id="Group" stroke="#000000" stroke-width="2" transform="translate(-2.000000, -2.000000)"><g id="Shape"><path d="M20.4288571,13 L17.0002857,13 L17.0002857,3 L20.4288571,3 C20.7444484,3 21.0002857,3.34439635 21.0002857,3.76923077 L21.0002857,12.2307692 C21.0002857,12.6556037 20.7444484,13 20.4288571,13 Z"/><path d="M17.0002857,12.25 L13.7006176,18.6431069 C13.2131505,19.5876664 12.0522489,19.9581669 11.1077088,19.4706623 C10.9312424,19.3795829 10.7699352,19.2617409 10.6295147,19.1213203 C10.6295147,19.1213203 10.6295147,19.1213203 10.6295147,19.1213203 C10.0669056,18.5587112 9.75083506,17.7956495 9.75083506,17 L9.75083506,14 L4.5,14 C4.0697613,14 3.66022875,13.8152504 3.37549068,13.492704 C3.09075262,13.1701576 2.95822607,12.740872 3.01159168,12.313948 L4.13659168,4.313947 C4.23042225,3.56330414 4.86852313,3 5.62500768,3 L17.0002857,3"/></g></g></g></svg>